<svg xmlns="http://www.w3.org/2000/svg" xmlns:xlink="http://www.w3.org/1999/xlink" width="900" height="600"><path d="M0 0h900v600H0z"/><path d="M0 0h900v400H0z" fill="#fff"/><path d="M0 0h900v200H0z" fill="#ce1126"/><g fill="#007a3d"><g transform="matrix(5 0 0 5 26.07 0)"><g id="A"><g id="B"><path d="M54 47l-4.017 12.364 7.608 2.472" id="C"/><use xlink:href="#C" x="-108" transform="scale(-1 1)"/></g><use xlink:href="#B" transform="rotate(72 54 60)"/></g><use xlink:href="#B" transform="rotate(288 54 60)"/><use xlink:href="#A" transform="rotate(144 54 60)"/></g><g transform="matrix(5 0 0 5 333.93 0)"><g id="D"><g id="E"><path d="M54 47l-4.017 12.364 7.608 2.472" id="F"/><use xlink:href="#F" x="-108" transform="scale(-1 1)"/></g><use xlink:href="#E" transform="rotate(72 54 60)"/></g><use xlink:href="#E" transform="rotate(288 54 60)"/><use xlink:href="#D" transform="rotate(144 54 60)"/></g></g></svg>